<?xml version="1.0" encoding="UTF-8"?><svg id="Capa_1" xmlns="http://www.w3.org/2000/svg" width="290" height="160" viewBox="0 0 290 160"><defs><style>.cls-1{fill:#701513;}.cls-2{fill:#525252;}</style></defs><g><g><path class="cls-2" d="m39.87,79.3l-3.75-8.68h-18.32l-3.75,8.68H5.14l18.26-39.85h7.02l18.38,39.85h-8.92Zm-19.39-14.81h12.97l-6.48-14.93-6.48,14.93Z"/><path class="cls-2" d="m87.28,39.45l-17.31,19.45,17.31,20.4h-10.11l-15.94-19.27v19.27h-8.56v-39.85h8.56v18.38l16.3-18.38h9.75Z"/><path class="cls-2" d="m122.49,46.65h-12.61v32.65h-8.56v-32.65h-12.67v-7.2h33.84v7.2Z"/><path class="cls-2" d="m127.96,79.3v-39.85h8.56v39.85h-8.56Z"/><path class="cls-2" d="m140.86,39.45h8.92l12.13,27.84,12.07-27.84h8.92l-17.96,39.85h-6.13l-17.96-39.85Z"/><path class="cls-2" d="m212.47,79.3l-3.75-8.68h-18.32l-3.75,8.68h-8.92l18.26-39.85h7.02l18.38,39.85h-8.92Zm-19.39-14.81h12.97l-6.48-14.93-6.48,14.93Z"/></g><g><path class="cls-1" d="m215.29,31.87s17.21,9.35,34.55.62c0,0-13.35,10.98-16.59,27.82,0,0-4.62-18.46-17.96-28.44Z"/><path class="cls-1" d="m231.51,79.3s11.47-47.05,52.39-69.75c0,0-37.67,29.74-35.92,69.75h-16.46Z"/><path class="cls-1" d="m252.77,79.3s1.24-39.57,31.12-56.22c0,0-31.68,29.18-19.89,56.22h-11.23Z"/><path class="cls-1" d="m284.39,38.11s-23.45,12.16-15.47,41.19h9.48s-12.47-21.98,5.99-41.19Z"/></g></g><g><path class="cls-2" d="m40.05,104.73c-2.3-2.68-5.46-4.02-9.49-4.02-2.11,0-4.04.4-5.8,1.2-1.76.8-3.27,1.92-4.55,3.35-1.28,1.44-2.28,3.13-3.02,5.08-.74,1.95-1.1,4.11-1.1,6.47s.37,4.44,1.1,6.42c.73,1.98,1.72,3.67,2.97,5.08,1.25,1.41,2.73,2.51,4.46,3.31,1.72.8,3.58,1.2,5.56,1.2,2.23,0,4.23-.46,5.99-1.39,1.76-.92,3.21-2.22,4.36-3.88l9.2,6.8c-2.11,3.07-4.79,5.27-8.05,6.61s-6.61,2.01-10.06,2.01c-3.9,0-7.49-.61-10.78-1.82-3.29-1.21-6.13-2.95-8.53-5.22-2.4-2.27-4.26-5.01-5.6-8.24-1.34-3.22-2.01-6.85-2.01-10.87s.67-7.65,2.01-10.87c1.34-3.22,3.21-5.99,5.6-8.29,2.39-2.3,5.24-4.06,8.53-5.27,3.29-1.21,6.88-1.82,10.78-1.82,2.87,0,5.86.54,8.96,1.63,3.1,1.09,5.73,2.97,7.9,5.65l-8.43,6.9Z"/><path class="cls-2" d="m71.18,91.79h9.01l21.75,49.91h-12.36l-4.31-10.54h-19.45l-4.12,10.54h-12.17l21.65-49.91Zm4.22,14.56l-6.13,15.52h12.26l-6.13-15.52Z"/><path class="cls-2" d="m105.96,91.79h18.49c2.55,0,5,.24,7.33.72,2.33.48,4.36,1.29,6.08,2.44,1.72,1.15,3.1,2.7,4.12,4.65,1.02,1.95,1.53,4.39,1.53,7.33s-.46,5.38-1.39,7.33c-.93,1.95-2.22,3.51-3.88,4.69-1.66,1.18-3.63,2.03-5.89,2.54-2.27.51-4.71.77-7.33.77h-8.05v19.45h-11.02v-49.91Zm11.02,21.17h7.28c.96,0,1.92-.1,2.87-.29.96-.19,1.79-.51,2.49-.96.7-.45,1.28-1.07,1.72-1.87.45-.8.67-1.77.67-2.92,0-1.28-.29-2.3-.86-3.07-.57-.77-1.33-1.36-2.25-1.77-.93-.41-1.95-.69-3.07-.81-1.12-.13-2.19-.19-3.21-.19h-5.65v11.88Z"/><path class="cls-2" d="m149.17,91.79h11.02v49.91h-11.02v-49.91Z"/><path class="cls-2" d="m178.96,101.57h-14.27v-9.77h39.47v9.77h-14.18v40.14h-11.02v-40.14Z"/><path class="cls-2" d="m218.72,91.79h9.01l21.75,49.91h-12.36l-4.31-10.54h-19.45l-4.12,10.54h-12.17l21.65-49.91Zm4.22,14.56l-6.13,15.52h12.26l-6.13-15.52Z"/><path class="cls-2" d="m253.98,91.79h10.92v39.76h20.41v10.15h-31.33v-49.91Z"/></g></svg>