<svg class="nH3-y" xmlns="http://www.w3.org/2000/svg" viewBox="0 0 1000 246"><path fill="#41adf4" d="M259.516 59.146c-59.202.119-96.712 48.726-93.488 107.617 2.146 41.741 31.551 69.438 73.928 69.359h.384c56.984-.1 96.334-45.158 92.898-107.895-2.013-38.265-29.194-69.16-73.722-69.081zm-14.832 136.87h-.365c-15.341.04-24.393-12.19-25.432-30.372-1.37-24.493 9.15-66.393 35.61-66.439 17.394-.04 24.36 14.382 25.101 29.194 1.483 27.366-9.806 67.617-34.914 67.617zm439.897-1.781c-13.594.066-24.373-3.92-31.048-11.29-3.615-4.27-5.76-10.786-6.316-15.235 66.187 1.735 105.08-14.753 102.79-57.765-1.781-32.1-27.307-51.667-61.308-51.574-60.545.086-93.705 53.693-90.95 105.18 2.343 44.715 28.445 71.604 76.152 71.525 9.038-.027 19.573-.45 30.544-4.523 11.74-4.47 36.55-52.064 35.358-49.832-21.03 10.627-37.834 13.514-55.222 13.514zm.298-97.765c10.654-.033 17.302 5.78 17.772 13.356v.364c.84 14.362-16.176 20.03-53.263 19.692 2.046-14.925 13.415-33.365 35.491-33.412zm157.734 65.161L999.5.501s-68.756 2.555-166.812 112.106l.424 1.82c-2.338-6.257.37-.125-10.78-28.663-14.627-37.245-65.81-23.844-65.81-23.844l40.986 83.535-83.6 99.877s57.91 1.563 107.053-68.478h.894c2.96 9.998 4.834 16.692 9.581 28.823l9.86 25.485 56.52-.066-35.829-80.43-19.374 10.965zM547.638 58.63c-20.778.106-40.847 9.787-54.395 30.949-2.191-13.971-14.375-30.843-40.45-30.77-21.01.04-40.417 9.21-54.302 30.564h-.516s11.879-37.483-22.93-32.14c-18.513 2.86-38.093 16.567-38.093 16.567 18.216 15.361 15.15 23.248 12.356 44.986l-14.746 114.794c50.13 3.788 50.283-14.09 53.064-31.855l6.72-45.496c4.02-32.848 18.772-55.156 34.127-55.182 10.515-.013 14.421 8.111 15.057 19.036.324 5.82-.298 12.687-1.185 19.527l-12.117 93.719c50.097 3.866 50.25-14.031 53.037-31.77l6.68-45.68c4.318-33.498 17.965-54.965 33.174-54.998 10.13-.013 15.203 7.502 15.752 18.163.37 6.475-.357 13.633-1.165 20.566l-12.17 93.553c50.104 3.867 51.593-14.07 54.335-31.783 2.787-17.778 8.919-68.18 8.919-68.18 1.04-8.8 1.675-22.506 1.364-29.478-1.583-27.856-16.163-45.184-42.516-45.092zM79.792 79.42c11.455-9.667 29.988-14.884 47.104-14.884 17.381-.02 30.816 3.502 38.477 6.535 0 0 25.777-40.973-2.84-47.482-8.456-1.827-20.977-3.258-32.763-3.383-32.147-.285-58.288 6.866-79.748 21.618C18.286 62.973-1.916 99.47.732 148.17c2.795 53.474 44.602 88.124 102.294 88.031 12.746-.026 26.93-1.748 36.1-3.688 13.461-2.728 23.161-49.501 23.161-49.501-17.48 7.383-33.193 10.667-47.402 10.693-34.444.106-56.752-19.976-58.48-51.5-1.496-28.175 7.111-49.217 23.387-62.785zm846.072 137.87v-.185c1.615-.483 3.006-1.768 3.006-3.82-.066-1.53-.53-2.576-1.47-3.271-.967-.682-2.45-1.199-4.847-1.199-1.814 0-2.98.206-4.324.457l.047 15.693h2.463v-6.754h1.675c2.02-.033 2.94.675 3.403 2.735.245 2.065.596 3.509 1.013 3.966h2.556c-.205-.457-.615-1.37-.98-3.867-.31-2.298-1.238-3.556-2.542-3.754zm-3.377-1.026h-1.748v-5.29c.41-.133.914-.205 1.748-.205 2.768 0 3.76 1.357 3.76 2.787 0 1.894-1.747 2.708-3.76 2.708zm.82-13.613h-.059c-7.561.026-13.706 6.264-13.706 14.09.04 8.005 6.171 14.196 13.766 14.157 7.641 0 13.647-6.198 13.647-14.203 0-7.807-6.099-14.044-13.647-14.044zm.094 26.061c-6.211.067-11.177-5.25-11.177-11.97 0-6.563 4.966-11.913 11.024-11.953h.06c6.237 0 11.157 5.35 11.157 11.979 0 6.654-4.92 12.01-11.064 11.944z"></path></svg>